<svg data-v-423bf9ae="" xmlns="http://www.w3.org/2000/svg" viewBox="0 0 393 90" class="iconLeft"><!----><!----><!----><g data-v-423bf9ae="" id="391b957e-990d-4bf3-9c83-8f8093111656" fill="#ffffff" transform="matrix(5.676442414270142,0,0,5.676442414270142,104.8344442135932,1.0927155759457037)"><path d="M0.91 2.80L0.91 12.60L2.87 12.60L2.87 8.33L7.49 8.33L7.49 12.60L9.45 12.60L9.45 2.80L7.49 2.80L7.49 6.58L2.87 6.58L2.87 2.80ZM11.13 11.90C11.13 12.21 11.24 12.47 11.47 12.69C11.70 12.91 11.97 13.02 12.29 13.02C12.61 13.02 12.88 12.91 13.11 12.69C13.34 12.47 13.45 12.21 13.45 11.90C13.45 11.59 13.34 11.33 13.11 11.11C12.88 10.89 12.61 10.78 12.29 10.78C11.97 10.78 11.70 10.89 11.47 11.11C11.24 11.33 11.13 11.59 11.13 11.90ZM22.96 7.52L23.67 12.60L25.70 12.60L24.16 2.45L20.10 8.64L16.04 2.45L14.50 12.60L16.53 12.60L17.25 7.52L20.10 11.69ZM26.75 11.90C26.75 12.21 26.87 12.47 27.10 12.69C27.33 12.91 27.60 13.02 27.92 13.02C28.23 13.02 28.51 12.91 28.74 12.69C28.96 12.47 29.08 12.21 29.08 11.90C29.08 11.59 28.96 11.33 28.74 11.11C28.51 10.89 28.23 10.78 27.92 10.78C27.60 10.78 27.33 10.89 27.10 11.11C26.87 11.33 26.75 11.59 26.75 11.90ZM32.72 8.40L36.85 8.40L36.85 6.72L32.72 6.72L32.72 4.55L37.13 4.55L37.13 2.80L30.76 2.80L30.76 12.60L37.13 12.60L37.13 10.85L32.72 10.85ZM38.74 11.90C38.74 12.21 38.85 12.47 39.08 12.69C39.31 12.91 39.58 13.02 39.90 13.02C40.22 13.02 40.49 12.91 40.72 12.69C40.95 12.47 41.06 12.21 41.06 11.90C41.06 11.59 40.95 11.33 40.72 11.11C40.49 10.89 40.22 10.78 39.90 10.78C39.58 10.78 39.31 10.89 39.08 11.11C38.85 11.33 38.74 11.59 38.74 11.90ZM44.24 7.70C44.24 6.69 44.56 5.88 45.21 5.28C45.85 4.67 46.64 4.37 47.57 4.37C48.23 4.37 48.84 4.51 49.40 4.80C49.95 5.09 50.40 5.46 50.72 5.92L50.72 3.60C49.90 2.88 48.85 2.52 47.57 2.52C45.99 2.52 44.69 3.00 43.69 3.95C42.68 4.90 42.18 6.15 42.18 7.70C42.18 9.25 42.68 10.50 43.69 11.45C44.69 12.40 45.99 12.88 47.57 12.88C48.85 12.88 49.90 12.52 50.72 11.80L50.72 9.48C50.40 9.94 49.95 10.31 49.40 10.60C48.84 10.89 48.23 11.03 47.57 11.03C46.64 11.03 45.85 10.73 45.21 10.12C44.56 9.52 44.24 8.71 44.24 7.70Z"></path></g><!----><g data-v-423bf9ae="" id="0909b79c-b25b-4f8e-9907-531cfb97eaaf" transform="matrix(2.8125,0,0,2.8125,0,0)" stroke="none" fill="#FFFFFF"><path d="M0 16l16 16 16-16L16 0 0 16zm16 13.172L2.828 16 16 2.828 29.172 16 16 29.172z"></path><path d="M14.751 9.991v4.76h-2.262v-4.76H9.991v12.018h2.498v-4.76h2.262v4.76h2.498v-4.76h2.262v4.76h2.498V9.991h-2.498v4.76h-2.262v-4.76z"></path></g><!----></svg>